<svg width="40" height="40" viewBox="0 0 40 40" fill="none" xmlns="http://www.w3.org/2000/svg">
<path d="M27.1688 0H21.8C21.3 0 20.8188 0.312387 20.45 0.874683L14.3062 10.2463C14.3 10.2567 14.2938 10.2775 14.2875 10.2879C13.25 11.9123 13.2688 14.5052 14.1562 16.1192C14.95 17.5665 16.6188 17.9518 17.6625 16.4003C17.6688 16.3899 17.6812 16.3899 17.6875 16.3795L22.6812 8.75724C23.0875 8.14288 23.725 8.18453 24.0938 8.86137C24.4688 9.53821 24.4375 10.5899 24.0312 11.2147L22.4 13.7034L31.5 26.0114C31.6813 26.2613 31.8437 26.532 31.9937 26.8132V6.66425L28.5812 0.978812C28.2125 0.354038 27.7 0 27.1688 0V0ZM34 6.68507V29.9995C34 31.8426 34.8937 33.3317 36 33.3317H40V6.68507H34ZM37 29.9995C36.45 29.9995 36 29.2498 36 28.3335C36 27.4171 36.45 26.6674 37 26.6674C37.55 26.6674 38 27.4171 38 28.3335C38 29.2498 37.55 29.9995 37 29.9995ZM0 33.3212H4C5.10625 33.3212 6 31.8322 6 29.9891V6.68507H0V33.3212ZM3 26.6674C3.55 26.6674 4 27.4171 4 28.3335C4 29.2498 3.55 29.9995 3 29.9995C2.45 29.9995 2 29.2498 2 28.3335C2 27.4067 2.45 26.6674 3 26.6674ZM30.2437 28.6042L20.9125 15.9838L19.0375 18.8473C17.1813 21.6692 14.3375 21.3985 12.6812 18.3892C11 15.3278 11.1313 10.5899 12.9563 7.79925L18.0688 0H12.8313C12.3 0 11.7937 0.354038 11.4187 0.978812L8 6.66425V29.9787H9.14375L14.8 38.5069C16.5125 40.8289 19.0312 40.3916 20.425 37.5385L20.4375 37.5176L21.5562 39.1316C22.55 40.4853 24.0188 40.225 24.825 38.5693L26.7875 34.55L27.125 35.0081C27.9812 36.164 29.2437 35.9557 29.9375 34.5187L30.5312 33.3004C31.2312 31.8634 31.1 29.7705 30.2437 28.6042V28.6042Z" fill="black"/>
</svg>
