<svg width="3903" height="555" viewBox="0 0 3903 555" fill="none" xmlns="http://www.w3.org/2000/svg">
<path d="M270 8.29999C265.3 12.8 255 22.6 247 30C239 37.4 226.6 48.9 219.5 55.6C179.4 92.9 181.7 91 178.3 91C175.3 91 175 91.3 175 93.9C175 97 169.1 102.9 121.5 147C109.4 158.2 96.4 170.3 92.5 174C88.7 177.6 75.6 189.8 63.5 201C51.4 212.3 40.8 222.2 39.9 223C39.1 223.8 32.1 230.3 24.4 237.5C16.8 244.6 8.3 252.7 5.5 255.3L0.5 260.1L11.5 270.6L22.5 281.1L17.3 286.1C14.4 288.9 12 291.3 12 291.5C12 291.7 37.8 315.6 52 328.5C71.6 346.2 79.2 353.2 86 359.5C90.1 363.4 96.2 369 99.5 372C102.8 374.9 108.2 379.9 111.5 383C118 389.1 137 406.4 152 419.9C157.2 424.6 164.4 431.2 168 434.6C171.6 437.9 183.3 448.7 194 458.5C219.8 482.1 220.9 483.1 232.5 493.5C238 498.5 243.1 503.2 244 504.1C244.8 505 251.4 511.1 258.5 517.5C265.7 524 276.2 533.6 282 539C287.8 544.3 294.1 550.1 296.1 551.8L299.7 555L302.2 552.2C303.6 550.7 308 546.3 312.1 542.5C316.2 538.6 324.5 530.7 330.5 525C336.6 519.2 346 510.2 351.5 505C362.2 494.9 396.5 462.1 416.4 443C423 436.7 433.2 427 439 421.4C449.3 411.6 462.6 398.9 482.4 379.9C487.8 374.8 492.8 370 493.4 369.5C496.9 366.2 560.8 305.3 567.3 299L575.1 291.5L566.5 284.6C561.8 280.9 558 277.4 558 277C558 276.6 560.7 273.6 564 270.3L570.1 264.5L534.8 232.5C515.4 214.9 496.4 197.6 492.5 194C486.1 188 468.3 171.8 426.5 134C418.3 126.6 408.4 117.5 404.5 113.9C395.9 105.9 367.2 79.7 353.5 67.5C348 62.6 332.5 48.4 319 36C291.2 10.6 279.5 -8.27014e-06 278.9 -8.27014e-06C278.7 -8.27014e-06 274.7 3.69999 270 8.29999ZM295 32.1C301.4 38.1 342.3 75.3 350.3 82.5L359.2 90.5L319.6 90.8C297.8 90.9 262.3 90.9 240.7 90.8L201.4 90.5L213.4 79.3C220.1 73.2 237.6 56.9 252.4 43.1L279.4 18.1L285.9 23.9C289.5 27.2 293.6 30.8 295 32.1ZM371.3 108.9C382.5 113.3 392.3 123.6 396.6 135.4C398.4 140.3 398.5 146.2 398.8 261.5C399 344.6 398.7 384.5 398 389C395.6 403.3 385 417.1 372.3 422.2L366.5 424.5L278.7 425C230.3 425.3 190.4 425.2 189.9 424.9C189.3 424.6 189.1 418.5 189.2 410.9L189.5 397.5L197.8 397.2L206 396.9V264.5V132H197.5H189V119V106L277.3 106.2L365.5 106.5L371.3 108.9ZM183.5 147H192L191.7 264.7L191.5 382.5L183.3 382.8L175 383.1V393.6C175 399.8 174.6 404 174.1 403.8C173.3 403.6 127.4 361.1 119 353C118.2 352.2 111.2 345.7 103.5 338.5C89.1 325.2 83 319.4 65.6 302.9C60 297.7 51.9 290 47.5 286C25.2 265.4 19.7 259.8 20.8 259.1C21.4 258.7 25.5 255 29.7 250.9C34 246.8 50.5 231.3 66.5 216.5C82.4 201.6 99.5 185.7 104.5 181C113.4 172.6 135.2 152.3 148 140.5C151.6 137.2 157.6 131.5 161.5 127.9C165.3 124.2 169.9 120.1 171.5 118.7L174.5 116.2L174.8 131.6L175.1 147H183.5ZM436.6 161C453.5 176.3 459.5 181.7 469.5 191.1C473.3 194.7 486.4 206.6 498.5 217.5C510.6 228.5 527.1 243.5 535.3 250.9L550 264.3L547.8 266.9C546.6 268.3 544.7 270.3 543.5 271.3C542.4 272.4 536.3 278.2 530 284.3C523.7 290.5 507.7 305.8 494.5 318.5C481.4 331.1 465.2 346.7 458.5 353.1C426.3 384.2 419.2 390.9 415.3 394.4L411.2 398.1L412.1 394.3C412.6 392.2 413 334.1 413 265.2V139.8L417.3 143.7C419.7 145.8 428.4 153.6 436.6 161ZM366.5 441.7C364.9 443.1 351.6 455.8 337 469.9C293.6 511.8 291.9 513.5 291 513.3C290.5 513.1 289.1 512 287.8 510.8C286.5 509.5 269.1 493.2 249.1 474.5L212.7 440.5L288.6 440C330.3 439.7 365.6 439.4 367 439.3L369.5 439.1L366.5 441.7Z" fill="#0477B3"/>
<path d="M284 267.5V373H293.5H303V271.2C303 178.7 302.9 169.2 301.4 167.1C299.2 164 294.1 162 288.5 162H284V267.5Z" fill="#0477B3"/>
<path d="M1272 124.6C1270.6 124.8 1266.8 125.5 1263.5 126.1C1255.8 127.5 1244.9 132.5 1238.4 137.8C1235.6 140 1231.2 144.9 1228.8 148.7C1220.3 161.5 1217.4 173.6 1218.2 193.1C1218.6 203.5 1219.2 206.9 1221.7 214.3C1228.5 233.7 1241.5 245.7 1261.6 250.7C1271.2 253.1 1294 253 1302.9 250.6C1319.5 246.1 1332 235.9 1338.9 221.4C1347.5 203.5 1347.2 173.1 1338.4 154.3C1332.4 141.6 1317.5 130.2 1301.9 126.5C1295.4 125 1276.6 123.8 1272 124.6ZM1292.9 155.5C1299.2 158.3 1304 164.3 1305.9 171.5C1307.7 178.4 1308.3 190.2 1307.1 198.4C1304.5 216.4 1297 224.2 1282 224.3C1274.2 224.3 1268 221.9 1263.2 216.9C1252.9 206.3 1252.9 171.4 1263.3 160.1C1269.8 153 1282.8 151 1292.9 155.5Z" fill="#0477B3"/>
<path d="M2353 125C2326.8 128.1 2308.5 144.2 2302.3 169.7C2300.1 178.9 2300.1 198.2 2302.4 207.5C2307.8 230 2322.1 244.8 2344 250.7C2353.9 253.3 2379.7 253 2390.5 250.1C2399.9 247.6 2408.7 243.6 2418.8 237.4L2426 232.9V206.4V180H2396.5H2367V192.5V204.9L2379.8 205.2L2392.5 205.5L2392.8 211.7L2393.1 217.9L2388.3 220.3C2368.4 230.4 2348.7 226.4 2342.1 210.9C2337 199.2 2337 177.8 2342.1 166.1C2347.3 153.9 2361.9 148 2375.3 152.6C2380 154.2 2387 160.8 2387 163.7C2387 164.4 2387.9 165 2388.9 165C2391.3 165 2423.1 159.2 2423.7 158.7C2423.9 158.5 2423.1 155.9 2422 152.9C2417.7 141.9 2408.1 132 2397.7 128.1C2388.2 124.6 2368.4 123.2 2353 125Z" fill="#0477B3"/>
<path d="M3585 124.6C3569 126.5 3559.4 130.5 3552 138.7C3540.8 151 3540.3 169.2 3550.9 181.3C3557.4 188.7 3568.5 193.8 3589.8 199.5C3607.9 204.2 3611 206.1 3613 213C3614.1 216.9 3612.3 222.2 3608.8 225C3603.6 229.2 3592.6 229.9 3585.9 226.5C3580.4 223.6 3575 215.1 3575 209.1C3575 208 3572.8 207.8 3562.3 208.4C3541.2 209.5 3539 209.9 3539 212.4C3539 219 3544.2 231.1 3550.1 238.1C3558.6 248.3 3571.7 252.4 3595.5 252.3C3610 252.3 3612.2 252.1 3619.4 249.7C3637.9 243.6 3648.8 230.4 3649.8 212.9C3650.3 203.6 3648.3 195.9 3643.7 189.8C3636.3 180.2 3626.2 175.3 3600.3 168.8C3586.5 165.4 3583 164.1 3580.8 161.9C3577.2 158.4 3577.2 154.9 3580.9 150.8C3583.4 147.9 3584.4 147.6 3590.3 147.2C3601.3 146.5 3607.2 150.7 3610.5 161.3C3610.9 162.9 3611.7 163.1 3615.8 162.6C3618.4 162.3 3626.3 161.8 3633.3 161.4L3646.1 160.8L3645.5 156.6C3644.5 150.4 3639.7 140.8 3635.7 136.9C3631 132.3 3623.8 128.5 3616.4 126.5C3610.5 124.9 3591.7 123.8 3585 124.6Z" fill="#0477B3"/>
<path d="M3830.5 125.1C3818.3 126.7 3810.1 130.3 3803.2 137C3797 143.2 3793.8 150 3793.2 158.6C3791.9 178.5 3804.5 190.2 3836 198.5C3857.9 204.2 3863 207.6 3863 216.5C3863 222.9 3854.8 229 3846.2 229C3836.4 229 3828.2 222.9 3825.5 213.5L3823.9 208H3819.2C3813.3 208.1 3788.8 209.8 3788.4 210.3C3788.2 210.4 3788.7 213.7 3789.5 217.4C3791.2 225.6 3797.1 236 3802.9 241.3C3811.7 249.2 3823.4 252.3 3844.5 252.4C3865.8 252.4 3876.7 249.1 3887 239.4C3899.7 227.5 3903.3 209.1 3895.8 194.1C3889.6 181.5 3878.9 175.8 3847.3 168.1C3830.2 163.9 3828 162.6 3828 156.4C3828 150.4 3833.1 147 3841.7 147C3850.9 147.1 3857.8 152.2 3859.6 160.3C3860.2 163.2 3860.2 163.2 3866.4 162.6C3869.7 162.3 3877.8 161.8 3884.2 161.4L3895.9 160.8L3895.3 157.6C3893.3 146.9 3887.5 137.6 3879.6 132.2C3869.4 125.4 3850.3 122.6 3830.5 125.1Z" fill="#0477B3"/>
<path d="M691 188.5V251.2L725.3 250.7C762.2 250.2 766.3 249.8 777.7 244.4C789.4 238.8 799.9 224.4 803.1 209.5C805.2 199.7 804.7 175.1 802.2 165.7C798.1 150.6 790.3 139.5 779.7 133.6C768.2 127.1 765.4 126.7 726.3 126.3L691 125.8V188.5ZM754.2 157.3C757.9 159.1 760.6 161.3 762 163.5C768.5 173.9 768.7 202.9 762.4 213.8C758.6 220.3 753.9 222.3 740.3 222.8L729 223.3V188.5V153.8L738.8 154.2C747 154.5 749.5 155 754.2 157.3Z" fill="#0477B3"/>
<path d="M825 188.5V251H877H929V237V223H896H863V210.5V198L892.8 197.8L922.5 197.5L922.8 185.2L923.1 173H893H862.9L863.2 162.7L863.5 152.5L895 152.3L926.5 152.1L926.8 139L927.1 126H876H825V188.5Z" fill="#0477B3"/>
<path d="M938.6 127.2C939.1 127.9 949.9 144.4 962.7 163.7L986 199V225V251H1005H1024V224.6V198.1L1047.5 162.6C1060.4 143 1071 126.7 1071 126.5C1071 126.2 1061.8 126 1050.6 126H1030.2L1018.7 145.2C1012.3 155.8 1006.5 165.3 1005.8 166.3C1004.6 167.9 1003.2 165.9 992 147.1L979.5 126H958.7C942.3 126 938 126.3 938.6 127.2Z" fill="#0477B3"/>
<path d="M1085 188.5V251H1103.5H1122V235.9V220.8L1128.4 214.2C1131.9 210.5 1136.5 205.8 1138.5 203.6C1140.5 201.4 1142.5 200.1 1142.9 200.6C1143.4 201.1 1149.3 212.5 1156 225.8C1162.8 239.2 1168.8 250.4 1169.4 250.6C1170 250.8 1180.5 250.9 1192.7 250.8L1214.8 250.5L1207.5 238.5C1203.4 231.9 1199.5 225.4 1198.7 224C1198 222.6 1190.9 210.9 1183 198.1C1175.2 185.2 1168.7 174.1 1168.6 173.5C1168.5 172.8 1178 162.5 1189.5 150.6C1201.1 138.6 1210.9 128.2 1211.3 127.4C1212 126.2 1208.3 126 1187.7 126H1163.2L1159.9 129.8C1158 131.9 1149.1 142.5 1140 153.3C1130.9 164.1 1123.2 172.9 1122.8 172.9C1122.3 173 1122 162.4 1122 149.5V126H1103.5H1085V188.5Z" fill="#0477B3"/>
<path d="M1343 126.5C1343 126.7 1353.8 143.2 1367 163.2L1391.1 199.4L1390.9 225L1390.8 250.5L1409.4 250.8L1428 251V225.1V199.1L1452 162.8L1476 126.5L1456.3 126.2C1445.4 126.1 1436.1 126.1 1435.5 126.4C1434.9 126.6 1428.8 136.1 1422.1 147.5C1414.8 159.7 1409.4 167.8 1408.9 167.3C1407.9 166.3 1391.3 138.4 1387.1 130.8L1384.5 126H1363.8C1352.3 126 1343 126.2 1343 126.5Z" fill="#0477B3"/>
<path d="M1489 188.5V251H1508H1527V235.9V220.7L1536.6 210.4C1541.9 204.7 1546.5 200 1546.8 200C1547.2 200 1553.4 211.5 1560.5 225.5L1573.5 251H1596.7H1620L1610.3 235.2C1605 226.6 1596.6 212.7 1591.7 204.5C1586.7 196.2 1580.5 186 1577.8 181.7C1575.1 177.4 1573 173.5 1573.2 173C1573.4 172.5 1583.4 161.9 1595.4 149.3L1617.4 126.5L1593 126.2C1570.9 126 1568.5 126.1 1566.7 127.7C1565.7 128.7 1556.4 139.4 1546.1 151.5L1527.5 173.5L1527.2 149.7L1527 126H1508H1489V188.5Z" fill="#0477B3"/>
<path d="M1633 188.5V251H1682H1731.1L1730.8 236.2L1730.5 221.5L1700.8 221.2L1671 221V173.5V126H1652H1633V188.5Z" fill="#0477B3"/>
<path d="M1748 188.5V251H1800H1852V237V223H1819H1786V210.5V198H1816H1846V185.5V173H1816H1785.9L1786.2 162.7L1786.5 152.5L1818.3 152.2L1850 152V139V126H1799H1748V188.5Z" fill="#0477B3"/>
<path d="M1873 188.5V251.1L1888.3 250.8L1903.5 250.5L1904 203.8L1904.5 157.1L1912.4 188.3C1916.7 205.5 1922.1 226.6 1924.3 235.2L1928.3 251H1942.1H1955.9L1956.9 247.2C1957.4 245.2 1962.7 224.6 1968.5 201.5C1974.3 178.4 1979.5 158.6 1980 157.5C1980.5 156.3 1980.9 174.2 1980.9 203.3L1981 251.1L1996.3 250.8L2011.5 250.5V188.5V126.5H1986.6H1961.7L1952.1 164.3C1945.7 189.6 1942.3 201.6 1941.8 200.3C1941 198.6 1923 127.7 1923 126.6C1923 126.3 1911.8 126 1898 126H1873V188.5Z" fill="#0477B3"/>
<path d="M2094 188.5V251L2111.8 250.8L2129.5 250.5L2129.8 216.3L2130 182.1L2151.7 214.3C2163.6 232 2174 247.5 2174.9 248.7C2176.4 250.9 2177.1 250.9 2194.3 251H2212V188.5V126H2194H2176L2175.8 160.4L2175.5 194.8L2155 164.2C2143.7 147.4 2133.3 132 2131.7 129.8L2129 126H2111.5H2094V188.5Z" fill="#0477B3"/>
<path d="M2239 188.5V251H2258H2277V188.5V126H2258H2239V188.5Z" fill="#0477B3"/>
<path d="M2566 188.5V251H2618H2670V237V223H2637H2604V210.5V198H2633.5H2663V185.5V173H2633.5H2604V162.4C2604 152.1 2604 151.9 2606.3 152C2607.5 152.1 2621.9 152.2 2638.3 152.1L2668 152V139V126H2617H2566V188.5Z" fill="#0477B3"/>
<path d="M2691 188.5V251H2708.5H2726V216.9C2726 195.8 2726.4 183 2727 183.2C2727.5 183.3 2730.8 187.8 2734.3 193C2737.8 198.2 2747.1 212.1 2755.1 223.8C2763 235.6 2770.3 246.5 2771.3 248.1L2773.2 251H2791.1H2809V188.5V126H2791H2773V160.7V195.5L2770.5 192C2769.2 190.1 2758.7 174.5 2747.3 157.5L2726.5 126.5L2708.7 126.2L2691 126V188.5Z" fill="#0477B3"/>
<path d="M2826 141.5V157L2845.3 156.8L2864.5 156.6L2864.8 203.8L2865 251H2884H2903V204V157L2917.8 156.8C2931.5 156.7 2937.7 156.5 2940.8 156.1C2941.7 156 2942 152.3 2942 141V126H2884H2826V141.5Z" fill="#0477B3"/>
<path d="M2959.2 188.2L2959.5 250.5L3011.3 250.8L3063 251V237V223H3030H2997V210.5V198H3027H3057V185.5V173H3027H2996.9L2997.2 162.7C2997.4 155.5 2997.9 152.5 2998.8 152.4C2999.4 152.3 3013.7 152.2 3030.5 152.1L3061 152V139V126H3010H2959L2959.2 188.2Z" fill="#0477B3"/>
<path d="M3085 188.4V251H3104H3123V225.5V200H3126.2C3130.8 200 3137.2 203.5 3139.6 207.3C3140.8 209.2 3146.6 219.7 3152.6 230.8L3163.3 251H3184.7H3206L3196.3 232.2C3184.7 209.9 3179.4 202.5 3172.2 199C3166.9 196.4 3165.7 195 3168.8 195C3172.4 195 3182.8 188.9 3187 184.4C3192.4 178.5 3195.2 172.1 3195.8 164C3196.7 150.9 3191.2 138.4 3181.9 132.8C3172.8 127.2 3169.1 126.8 3125.3 126.3L3085 125.8V188.4ZM3149.2 152C3156.8 154.2 3160.3 162.7 3156.4 170.1C3154 174.8 3149.3 176.3 3135.3 176.8L3123 177.2V164.1V151H3134.3C3140.4 151 3147.2 151.5 3149.2 152Z" fill="#0477B3"/>
<path d="M3219 187.4C3219 221.3 3218.9 249.3 3218.8 249.7C3218.6 250.2 3226.9 250.6 3237.2 250.8L3256 251L3256.2 227.8L3256.5 204.5L3275 203.9C3290.8 203.4 3294.3 203 3299.1 201.1C3310.1 196.9 3317.2 189.8 3320.7 179.7C3322.9 173.5 3323.2 156.7 3321.2 150.3C3319.3 144 3314 136.9 3308.7 133.3C3299.2 127 3297.4 126.7 3256.3 126.2L3219 125.8V187.4ZM3279.7 153.3C3288.8 158.1 3287.9 173.6 3278.2 177.7C3275.9 178.7 3271.1 179.3 3265.5 179.4L3256.5 179.5L3256.2 166.6C3256.1 159.4 3256.2 153 3256.5 152.2C3257.3 150.1 3275.3 151 3279.7 153.3Z" fill="#0477B3"/>
<path d="M3344 188.4V251H3363H3382V225.5V200H3385.2C3390 200 3396.2 203.5 3399 207.8C3400.4 209.9 3406.2 220.5 3412 231.3L3422.5 251H3443.8H3465.2L3455.3 231.9C3443.8 209.5 3438.7 202.6 3431.3 199C3425.9 196.4 3424.7 195 3427.8 195C3431 195 3441.7 189.2 3445.5 185.4C3447.6 183.4 3450.4 179.2 3451.9 176.1C3454.2 171.2 3454.5 169.2 3454.5 160.5C3454.5 152.6 3454 149.6 3452.4 146C3449.6 139.9 3445.7 135.5 3440.3 132.3C3431.6 127.2 3427.7 126.8 3384.3 126.3L3344 125.8V188.4ZM3411.7 153.4C3419.6 158.2 3418.7 171.1 3410.2 174.7C3407.7 175.8 3402.3 176.5 3394.3 176.8L3382 177.2V164V150.8L3395.3 151.2C3406.1 151.4 3409.1 151.9 3411.7 153.4Z" fill="#0477B3"/>
<path d="M3479.7 126.7C3478.8 127.5 3478.8 247.3 3479.6 249.4C3480.1 250.8 3482.8 251 3498.6 251H3517V188.5V126H3498.7C3488.6 126 3480 126.3 3479.7 126.7Z" fill="#0477B3"/>
<path d="M3670 188.5V251H3722H3774V237V223H3741H3708V210.5V198H3737.5H3767V185.5V173H3737.5H3708V162.5V152L3739.8 152.1H3771.5L3771.8 139L3772.1 126H3721H3670V188.5Z" fill="#0477B3"/>
<path d="M2449 234V251H2467H2485V234V217H2467H2449V234Z" fill="#0477B3"/>
<path d="M691 285V292H2295.5H3900V285V278H2295.5H691V285Z" fill="#0477B3"/>
<path d="M932 335.2C924.1 339.2 921.1 347 923.9 356.7C924.7 359.6 924.6 359.9 921.9 361.1C912.5 364.9 906.1 373.6 907.5 380.6C908.3 385.1 913.2 390.6 917.7 392.1C923.1 393.8 932.6 392.7 938.7 389.6L943.9 387L948.7 390C952.1 392.2 954.6 393 957.9 393C961.9 393 962.8 392.5 966.7 388.5C970.8 384.2 972.2 381 970 381C969.5 381 969 381.4 969 382C969 383.6 965.2 385.1 962.8 384.5C961.5 384.1 959 382.6 957.1 381.1L953.8 378.4L959.9 369.2C963.3 364.1 966.7 360 967.5 360C968.2 360 969.2 359.5 969.5 359C969.9 358.4 967 358 961.4 358H952.7L955.4 360.5C957.5 362.5 957.9 363.5 957.4 365.7C956.4 369.6 952 376.1 950.8 375.4C949.5 374.6 938 359 938 358.1C938 357.6 939.8 356.5 942 355.5C947.7 352.9 952 347.8 952 343.6C952 339.2 948.8 335.3 944.2 334C938.8 332.5 936.9 332.7 932 335.2ZM941.6 340.1C944.1 345 943.7 350 940.5 352.7C937 355.8 936.2 355.6 934.4 351.3C930.7 342.6 931.7 337 937 337C939.3 337 940.3 337.7 941.6 340.1ZM928.6 366.7C930.1 369.4 933.5 374.3 936.2 377.6C938.8 381 941 384 941 384.3C941 385.4 933.8 387.2 931.5 386.6C925.6 385.1 919 376.6 919 370.5C919 368.2 923.7 362 925.3 362C925.6 362 927 364.1 928.6 366.7Z" fill="black"/>
<path d="M1280.5 334.4C1271 337.9 1266.8 347.7 1271 356.5C1273.4 361.4 1277.5 364.7 1287.9 369.9C1296.3 374.2 1299 377 1299 381.5C1299 386.8 1295.4 390 1289.5 390C1287 390 1283.6 389.3 1282.1 388.6C1278 386.4 1273.3 380.6 1271.9 376C1271.2 373.8 1270.3 372 1269.8 372C1269.4 372 1269 376.7 1269 382.5C1269 388.3 1269.3 393 1269.7 393C1270 393 1271.2 392.2 1272.2 391.3C1273.9 389.8 1274.6 389.8 1278.8 391C1293.9 395.4 1304.7 391.4 1308.1 380.1C1310.8 370.9 1306.1 364 1292 356.5C1278.8 349.5 1275.1 344.1 1280.3 339.2C1283.3 336.4 1287.2 335.6 1291.5 337C1295.9 338.5 1301.7 344.2 1302.5 348.1C1303.9 354.3 1305 351.8 1305 342.5C1305 336.3 1304.6 333.1 1304 333.5C1303.5 333.8 1303 334.8 1303 335.6C1303 337.4 1299.7 337.4 1296 335.5C1291.6 333.2 1285.1 332.8 1280.5 334.4Z" fill="black"/>
<path d="M1534 333.7C1530 335.3 1528.7 341.5 1531.8 344.3C1535.6 347.7 1541.3 345.8 1542.5 340.8C1543 338.7 1542.6 337.5 1540.6 335.6C1538.1 333 1536.8 332.6 1534 333.7Z" fill="black"/>
<path d="M1699.4 333.9C1694.8 335 1691.3 338 1689 342.6C1683.7 353.2 1688.4 361.2 1704.6 369.3C1716.3 375.2 1720.1 382 1714.5 387.5C1707.8 394.3 1691.9 386.9 1689.5 375.9C1688.1 369.5 1687 372.3 1687 382.4C1687 392.1 1687.9 395.4 1689.4 391.5C1690.1 389.6 1693.3 389.6 1698.5 391.5C1703.6 393.3 1711.1 393.4 1715.3 391.6C1723.4 388.3 1728.3 379.2 1726.1 371.8C1724.3 365.9 1719.7 361.6 1709.8 356.4C1704.7 353.8 1699.6 350.7 1698.3 349.4C1695.9 347 1695.3 343.1 1697 340C1698.6 337.1 1704.9 335.5 1709.3 336.9C1713.6 338.4 1719.8 345 1720.7 349C1721.8 354.9 1723 351.8 1723 343C1723 338 1722.7 334 1722.4 334C1722 334 1721.2 334.8 1720.5 335.7C1719.3 337.2 1718.8 337.2 1712.6 335.2C1705.6 332.9 1704.4 332.8 1699.4 333.9Z" fill="black"/>
<path d="M1782.2 334.6C1779.4 336.5 1779.2 342 1781.8 344.3C1786 348.1 1792 345.1 1792 339.2C1792 336 1789.1 333 1786 333C1785.1 333 1783.4 333.7 1782.2 334.6Z" fill="black"/>
<path d="M2101.6 335.1C2098.7 337.4 2098.3 340.5 2100.6 343.8C2103.6 348.1 2112 345.3 2112 340C2112 337.6 2107.8 333 2105.7 333C2104.9 333 2103.1 333.9 2101.6 335.1Z" fill="black"/>
<path d="M2189.4 334C2181.3 335.9 2176.4 342.8 2177.2 351.2C2177.9 358.2 2181.7 362.4 2192.6 368.2C2206.8 375.9 2210.3 381.5 2204.2 387.3C2200.8 390.5 2194.8 390.9 2189.3 388.3C2185.3 386.4 2180.4 380.3 2179.5 376C2178.1 369.4 2177 372.3 2177 382.6C2177 392.9 2177.1 393.2 2178.8 391.7C2181.1 389.6 2183.7 389.6 2188.3 391.5C2192.8 393.4 2201.1 393.4 2205.3 391.6C2207.1 390.9 2210 388.6 2211.9 386.6C2214.9 383.5 2215.4 382.2 2215.8 377.2C2216.5 367.4 2213.9 364.1 2199 356.1C2188.7 350.5 2186 348.1 2186 344.3C2186 338.3 2191.7 335 2198.8 337C2203.5 338.2 2209.5 344.3 2210.5 348.9C2211.8 354.8 2213 352 2213 343C2213 338 2212.7 334 2212.4 334C2212 334 2211.2 334.8 2210.5 335.7C2209.3 337.2 2208.8 337.2 2202.6 335.2C2195.6 332.9 2194.4 332.8 2189.4 334Z" fill="black"/>
<path d="M2348.5 335.5C2345.5 338.4 2345.3 341.3 2348 344C2350.7 346.7 2355.5 346.6 2357.4 343.8C2359.7 340.5 2359.3 337.4 2356.4 335.1C2353 332.4 2351.4 332.5 2348.5 335.5Z" fill="black"/>
<path d="M2545.4 334.1C2534.6 336.6 2525.7 345.4 2522.3 356.9C2519.2 367.5 2523.6 380.8 2532.2 387.1C2539.6 392.4 2552 394.5 2561.2 392C2566.3 390.5 2573.4 385 2573.8 382.1C2574.2 379.8 2573.9 379.9 2569.9 383.3C2564.6 387.9 2560.2 389.3 2553.1 388.8C2543.8 388.1 2539.3 383.2 2537 371.2C2533.3 352.6 2541.8 337 2555.6 337C2562.7 337 2571.4 343.6 2572.7 350.1C2573.9 356.2 2575 352.6 2575 342.7C2575 332.6 2574.9 332.5 2573.1 334.9C2571.1 337.5 2571.1 337.5 2560.5 334.6C2554 332.8 2551.5 332.8 2545.4 334.1Z" fill="black"/>
<path d="M3189.3 334C3182.9 335.3 3177.7 338.4 3172.7 344C3166.9 350.5 3164.6 356.9 3165.2 365.8C3165.9 376.9 3171.2 384.7 3181.6 390C3185.9 392.2 3187.7 392.5 3197.5 392.5C3205.2 392.5 3210.2 392 3214.3 390.7L3220 388.9L3220.1 382.2C3220.2 373.2 3221 371 3224.5 369.5C3227.2 368.3 3226 368.2 3213.5 368.1C3199.5 368 3199.5 368 3203 369.8L3206.5 371.5L3206.8 380.2L3207.1 388.9L3203.5 389.6C3188.9 392.3 3181 384.5 3180.2 366.4C3179.3 347 3185.7 336.7 3198.6 336.8C3206.6 336.9 3213 341.2 3217.1 349.2C3218.2 351.3 3219.3 353 3219.5 353C3219.8 353 3220 348.4 3220 342.8C3220 333 3219.9 332.7 3218.4 334.9C3216.6 337.4 3215.5 337.4 3205 334.5C3199.1 332.9 3195.8 332.8 3189.3 334Z" fill="black"/>
<path d="M3505.4 335C3480.2 343.2 3476.4 378 3499.4 389.7C3506.1 393.1 3517.5 394 3524.7 391.6C3530.5 389.7 3537 384.6 3537 381.9C3537 379.3 3535.8 379.5 3532.9 382.6C3528.9 386.9 3523.7 389 3517.2 389C3505.8 389 3500.1 381.8 3499.2 366.1C3498.4 351.9 3501.9 343.1 3510.1 339C3519.7 334.1 3531.6 339.1 3535 349.6C3537 355.5 3538 353.4 3538 343.6C3538 334.7 3536.9 330.5 3535.7 335C3535.1 337.4 3532.2 337.6 3526.3 335.5C3519 333 3512.2 332.8 3505.4 335Z" fill="black"/>
<path d="M1868 336.7C1867.3 338.3 1862.3 349.5 1856.9 361.8C1845.8 386.9 1844.7 388.8 1841.4 389.6C1836.2 390.9 1839.5 392 1848.6 392C1857.7 392 1860.3 390.9 1854.1 389.7C1850.4 388.9 1849.7 387 1851.6 381.9C1853.9 375.2 1854.2 375 1864.7 375H1874.1L1876.6 380.6C1878 383.7 1879 387 1878.8 387.8C1878.6 388.6 1876.9 389.9 1875 390.6C1871.9 391.7 1873 391.9 1885.8 391.9C1893.6 392 1900 391.8 1900 391.5C1900 391.2 1898.8 390.5 1897.4 390C1894.6 388.9 1892.4 384.4 1878.4 352.3C1874.1 342.2 1870.2 334 1869.9 334C1869.6 334 1868.7 335.2 1868 336.7ZM1871.1 367.7C1872.4 370.8 1872.6 372 1871.7 372.1C1865.9 372.7 1856 372.6 1856 372C1856 371.5 1857.4 368.1 1859.1 364.3C1860.8 360.6 1862.7 356.4 1863.2 355C1864.3 352.3 1864.4 352.5 1871.1 367.7Z" fill="black"/>
<path d="M689.9 336C691.7 336.4 693.6 337.4 694.1 338.2C694.6 338.9 695 350.4 695 363.6C695 389.6 695.2 388.8 689.5 390.8C687.2 391.6 692.8 391.9 712.1 391.9L737.7 392L738.6 382C739.1 376.4 739.1 372.1 738.6 372.3C738.2 372.4 736.9 374.7 735.9 377.4C733.7 383.2 731.5 385.8 727.3 387.6C723.3 389.3 711.8 389.4 710.2 387.8C708.5 386.1 708.5 338.4 710.2 337.4C710.8 337 712.7 336.3 714.4 335.9C716.2 335.5 710.8 335.2 702 335.2C692.1 335.2 687.7 335.5 689.9 336Z" fill="black"/>
<path d="M860.1 336.1C863.1 337.2 864 340.4 864 350.3V356.1L861.5 354.1C854 348.2 843.8 352 839.6 362.2C837.4 367.4 837.6 378.4 839.9 383.5C842.9 390.1 846.3 392.5 852.5 392.5C856.7 392.5 858.4 392 860.2 390.2C863.3 387.4 864 387.4 864 390.6C864 392.5 864.4 393 865.8 392.6C866.7 392.3 870.2 391.6 873.4 391.1C876.7 390.5 879.5 389.8 879.7 389.6C879.9 389.4 878.9 388.5 877.5 387.6L875 386V360.5V335L866.3 335.1C859.4 335.1 858.1 335.4 860.1 336.1ZM859.1 356C859.6 356 860.9 357.5 862 359.2C863.6 361.9 864 364.3 864 372.2C864 381.2 863.8 382.1 861.4 385C857.8 389.2 854.2 388.8 851.8 384C849.7 380 849.3 365 851 360.3C852.3 357 854.9 354.8 856.8 355.5C857.6 355.8 858.6 356 859.1 356Z" fill="black"/>
<path d="M1001.6 335.9C1007.2 337.3 1007 336.4 1007 362.9C1007 389.6 1007.2 388.8 1001.5 390.8C999.2 391.6 1001.9 391.8 1014 391.8C1026.1 391.8 1028.8 391.6 1026.5 390.8C1021.1 388.9 1021 388.6 1021 375.9V364H1031H1041V375.9C1041 388.6 1040.9 388.9 1035.5 390.8C1033.2 391.6 1035.9 391.8 1048 391.8C1060.1 391.8 1062.8 391.6 1060.5 390.8C1054.8 388.8 1055 389.6 1055 363C1055 336.3 1054.9 336.6 1060.5 335.7C1062.2 335.5 1056.5 335.3 1048 335.3C1038.2 335.2 1033.7 335.5 1035.9 336C1037.7 336.4 1039.6 337.4 1040.1 338.2C1040.6 338.9 1041 344.3 1041 350.2V361H1031H1021V350.2C1021 344.3 1021.4 338.9 1021.9 338.2C1022.4 337.4 1024.3 336.4 1026.1 336C1028.3 335.5 1023.9 335.2 1014 335.2C1005.2 335.2 999.8 335.5 1001.6 335.9Z" fill="black"/>
<path d="M1134.3 336.6C1136.9 338 1137 338.3 1137 347.2V356.3L1134.6 354.1C1128.7 348.6 1118.5 351.7 1114 360.4C1110.4 367.7 1110.4 378.7 1114.2 385.1C1118.8 392.9 1126.6 395.1 1133.4 390.5L1137 388.1V390.6C1137 393.4 1137.4 393.4 1149.4 390.5C1154.4 389.3 1154.5 389.3 1151.8 388.2L1149 387V361V335H1140.3C1131.9 335.1 1131.6 335.2 1134.3 336.6ZM1133.9 357.6L1137 360.2V371.6C1137 382.5 1136.9 383.2 1134.5 385.5C1129.6 390.5 1125.6 387.8 1123.9 378.4C1122.5 370.7 1123.5 360.8 1126.1 357.5C1128.7 354.3 1130.1 354.4 1133.9 357.6Z" fill="black"/>
<path d="M1801 336.3L1803.5 337.6L1803.8 363.3L1804 389L1801.3 390.3C1798.6 391.4 1798.8 391.5 1804.3 391.8C1807.4 392 1812.6 392 1815.8 391.8C1821.2 391.5 1821.4 391.4 1818.8 390.3L1816 389V362V335H1807.3C1799.5 335 1798.8 335.2 1801 336.3Z" fill="black"/>
<path d="M1995 335.7C1998.7 337 1999 338.9 1999 362.8C1999 386.1 1998.5 390 1995.5 390C1994.7 390 1994 390.4 1994 391C1994 391.6 1998.2 392 2004.8 392H2015.5L2013 390L2010.5 388.1L2010.2 361.6L2009.9 335L2001.7 335.1C1997.2 335.1 1994.2 335.4 1995 335.7Z" fill="black"/>
<path d="M2756.7 336C2759.8 337.3 2760.2 340.5 2759.8 365.8L2759.5 388.1L2757 390L2754.5 392H2765.3C2771.8 392 2776 391.6 2776 391C2776 390.4 2775.3 390 2774.5 390C2771.5 390 2771 386.1 2771 360.6V335L2762.8 335.1C2756.9 335.1 2755.1 335.4 2756.7 336Z" fill="black"/>
<path d="M3117 336.1C3120.6 337.6 3121 338.7 3121 347.8V356.1L3118.3 354C3111.5 349.1 3102.6 351.8 3098 360C3094.6 366.1 3094.4 378.4 3097.6 384.5C3102.1 393.1 3111 395.6 3117.5 389.9L3121 386.8V390C3121 392.8 3121.3 393.2 3123.3 392.7C3124.5 392.4 3128.1 391.6 3131.3 391C3137.2 389.8 3138.5 388.6 3135 387.7C3133.1 387.2 3133 386.3 3133 361.1V335L3123.8 335.1C3116.6 335.1 3115.1 335.4 3117 336.1ZM3118.8 358.3C3120.8 360.2 3121 361.2 3121 371.7C3121 382.5 3120.9 383.2 3118.5 385.5C3115 389.1 3111.5 388.8 3109.4 384.7C3107.2 380.7 3106.4 367.9 3107.9 362.3C3110 354.8 3113.5 353.5 3118.8 358.3Z" fill="black"/>
<path d="M3438.8 336.2C3441 337.3 3441 337.3 3441 363.2C3441 388.3 3440.9 389.2 3439 389.7C3434.1 391 3437.9 392 3447.6 392C3454.3 392 3457.9 391.6 3457.5 391C3457.2 390.4 3456.3 390 3455.5 390C3454.8 390 3453.9 389.3 3453.6 388.4C3453.3 387.5 3453 375.2 3453 360.9V335L3444.8 335.1C3438.1 335.1 3436.9 335.3 3438.8 336.2Z" fill="black"/>
<path d="M2792.1 341.3C2791 343.1 2787.6 347 2784.5 349.9C2781.5 352.8 2779 355.3 2779 355.5C2779 355.7 2780 356 2781.3 356.2C2783.4 356.5 2783.5 356.9 2784 371.7C2784.5 386 2784.6 387 2786.9 389.4C2788.9 391.5 2790.3 392 2793.9 392C2798.9 391.9 2800.7 390.9 2803.4 386.7C2805.5 383.5 2804.5 383.1 2801.5 386C2798.7 388.7 2796.2 387.7 2795.5 383.7C2795.2 381.9 2795 375.1 2795.2 368.5L2795.5 356.5L2800.3 356.2C2804.2 355.9 2805.1 355.6 2804.8 354.2C2804.6 352.9 2803.2 352.4 2799.7 352.2L2794.9 351.9L2795.1 345.4C2795.2 341.9 2795.1 338.7 2794.8 338.4C2794.5 338.1 2793.3 339.4 2792.1 341.3Z" fill="black"/>
<path d="M3649.3 341.1C3648 343.1 3644.6 347 3641.5 349.9C3638.5 352.8 3636 355.3 3636 355.5C3636 355.7 3637 356 3638.3 356.2C3640.4 356.5 3640.5 356.9 3641 371.7C3641.5 386 3641.6 387 3643.9 389.4C3648.2 393.9 3657 392.6 3660.4 386.9C3662.4 383.5 3661.6 383.1 3658.5 386C3655.7 388.7 3653.2 387.7 3652.5 383.7C3652.2 381.9 3652 375.1 3652.2 368.5L3652.5 356.5L3657.3 356.2C3661.2 355.9 3662.1 355.6 3661.8 354.2C3661.6 352.9 3660.3 352.4 3656.8 352.2L3652.1 351.9L3651.8 344.7L3651.5 337.5L3649.3 341.1Z" fill="black"/>
<path d="M3798.5 340.1C3798.1 341.3 3794.7 345.4 3790.9 349.1C3785 355.1 3784.4 356 3786.4 356C3789.5 356 3789.9 357.1 3789.9 368.2C3789.9 387.1 3789.8 386.9 3792.5 389.5C3796.2 393.2 3803.1 393 3807.1 389.1C3810.9 385.3 3810.9 383.3 3807 386.1C3804.6 387.9 3803.8 388.1 3802.5 387C3801.3 386 3801 383.1 3801 370.9V356H3805.5C3809.3 356 3810 355.7 3810 354C3810 352.3 3809.3 352 3805.5 352H3801V345C3801 338.1 3799.8 335.9 3798.5 340.1Z" fill="black"/>
<path d="M757.9 352.6C755.4 353.3 752.1 355.2 750.6 356.6C744.7 362.6 749.8 370.9 757.1 367C759.4 365.7 759.6 362.8 757.4 359.5C755.9 357.3 756 357.1 758.3 355.5C760.8 353.9 765.4 354.2 766.6 356.1C766.9 356.7 767.4 359.2 767.7 361.8L768.2 366.6L760.5 370.5C751.2 375.3 747 379.7 747 384.5C747 392.2 754.8 394.4 763.3 389C766.6 386.9 768 386.5 768 387.5C768 392 776.7 393.6 781.4 389.9C784.6 387.4 784.7 385.9 781.8 386.3C779.5 386.5 779.5 386.3 779 372.4C778.4 356.7 777.8 355.1 771.3 352.4C767.3 350.7 763.8 350.7 757.9 352.6ZM768 375.8C768 384 764.4 387.7 759.9 384.1C758.2 382.7 757.8 381.7 758.4 379.5C759.1 376.8 765.4 370 767.2 370C767.6 370 768 372.6 768 375.8Z" fill="black"/>
<path d="M812 352.5C810.1 353.4 807.8 354.8 806.8 355.7C805.1 357.2 805 357.1 805 354.7C805 352 805 352 797 352C789.5 352 786.5 353.1 791 354.3C792.9 354.8 793 355.7 793 372C793 388.3 792.9 389.2 791 389.7C786.2 391 789.8 392 799 392C805 392 809 391.6 809 391C809 390.4 808.4 390 807.6 390C805.4 390 805 387.6 805 374.1C805 361.9 805.1 361.2 807.4 359.1C808.8 357.7 810.7 357 812.1 357.2C814.1 357.5 814.6 358.3 815.3 363C815.8 366 816 372.9 815.8 378.4C815.5 386.2 815.1 388.5 813.7 389.5C812.8 390.2 812 391 812 391.4C812 391.7 816.3 392 821.5 392C827.2 392 831 391.6 831 391C831 390.4 830.3 390 829.5 390C827.4 390 827.1 387.5 826.8 371.3C826.5 357.6 826.4 356.9 824 354.5C820.8 351.3 816.4 350.6 812 352.5Z" fill="black"/>
<path d="M1183.3 352.7C1181.5 353.7 1178.9 356 1177.5 357.9L1175 361.4V356.7V352H1167C1159.5 352 1156.5 353.1 1160.9 354.3C1163.4 354.9 1163.6 356.5 1163.2 374.4C1162.9 388.1 1162.8 389.3 1160.9 389.7C1156.1 391 1159.9 392 1169.5 392C1175.8 392 1180 391.6 1180 391C1180 390.4 1179.1 390 1178.1 390C1175.5 390 1175 388.1 1175 378.2C1175 368 1176.3 362.6 1179.1 360.6C1180.9 359.4 1181.6 359.5 1185.1 361.4L1189.1 363.5L1191.1 361.1C1193.5 358.1 1193.5 355.5 1191 353C1188.5 350.5 1187.4 350.5 1183.3 352.7Z" fill="black"/>
<path d="M1208.4 352C1204.3 353.3 1198.4 359.9 1197.1 364.7C1194.5 374.1 1197.5 385.4 1203.9 390C1212.6 396.2 1225 392.8 1230 382.9C1232.8 377.5 1232.7 367.1 1229.9 361.2C1226.2 353.7 1216.6 349.5 1208.4 352ZM1216.6 354.8C1219.2 356.5 1220 360.4 1220 371.9C1220 387.9 1218.6 391.1 1212.5 389.6C1208.9 388.7 1207.7 383.4 1208.1 370.3C1208.4 362 1208.9 358.7 1210.3 356.7C1212 354 1214.4 353.3 1216.6 354.8Z" fill="black"/>
<path d="M1388.5 352.4C1386.9 353.1 1384.3 355.5 1382.8 357.6L1380 361.5V356.7V352H1372C1364.5 352 1361.5 353.1 1366 354.3C1367.9 354.8 1368 355.7 1368 372C1368 388.3 1367.9 389.2 1366 389.7C1361.1 391 1364.8 392 1374.5 392C1380.3 392 1385 391.8 1385 391.5C1385 391.2 1383.9 390.5 1382.5 390C1380.1 389.1 1380 388.8 1380 378.5C1380 367.8 1381.2 362.8 1384.2 360.2C1385.5 359.2 1386.4 359.3 1389.3 361C1391.3 362.2 1393.5 362.8 1394.4 362.4C1398.3 360.9 1398.4 353.1 1394.5 351.6C1392.3 350.8 1392 350.8 1388.5 352.4Z" fill="black"/>
<path d="M1458.6 352C1451.2 354.3 1446.1 362.9 1446 373C1446 384.7 1451.4 391.8 1460.8 392.8C1466.8 393.3 1472.3 390.7 1475.8 385.6C1479 380.9 1478.5 379 1475.1 382.7C1471.4 386.8 1468.1 387.6 1464 385.5C1460.7 383.8 1457.1 377.4 1457 373.2C1457 371.1 1457.3 371 1467.5 371H1478V367.7C1478 363.6 1474.3 356.2 1471 353.8C1467.9 351.5 1462.5 350.8 1458.6 352ZM1466.7 357C1467.4 358.4 1468 361.4 1468 363.7V368H1462.4H1456.7L1457.2 363C1458 354.7 1463.7 351.1 1466.7 357Z" fill="black"/>
<path d="M1574.6 352C1573 352.5 1570.7 353.9 1569.5 355L1567.2 357.2L1566.8 354.8C1566.5 352.6 1566.1 352.5 1558.8 352.3C1550.7 352.2 1549.6 352.6 1553 354.8C1554.9 355.9 1555 357.1 1555 372.6C1555 388.3 1554.9 389.2 1553 389.7C1548.1 391 1551.8 392 1561.3 391.9C1570.9 391.9 1571.4 391.8 1569.3 390.3C1567.1 388.8 1567 388.1 1567 375.1C1567 362 1567.1 361.2 1569.3 359.2C1572 356.6 1575.5 356.3 1576.4 358.6C1576.7 359.5 1577 366.6 1577 374.5C1577 388.2 1576.9 388.8 1574.8 390.3C1572.6 391.8 1573.1 391.9 1582.8 391.9C1592.2 392 1595.9 391 1591 389.7C1589.1 389.2 1589 388.3 1589 375.1C1589 359.1 1588 355.1 1583.1 352.6C1579.8 350.8 1578.8 350.8 1574.6 352Z" fill="black"/>
<path d="M1609.7 352.4C1601.7 355.3 1597.6 362.4 1599.9 369.3C1601 372.6 1604.9 376.9 1608.2 378.4C1609.2 378.9 1609.2 379.2 1608 379.7C1607.2 380 1605.3 381.6 1603.8 383.1C1600.3 386.5 1600.1 391.4 1603.1 394.6L1605.2 396.8L1603.1 397.9C1597.4 401 1598.8 406.8 1605.7 409.1C1610.6 410.8 1623.4 410.8 1628.2 409.1C1636.4 406.3 1639.7 397.2 1634.6 391.3C1632.3 388.7 1631.7 388.5 1622.8 388.2C1611.5 387.9 1609.4 387.5 1608.6 385.4C1607.3 382 1609.8 380 1615.3 380C1621.5 380 1628.4 376.9 1631.3 372.8C1633.7 369.5 1633.9 362.7 1631.6 360.1C1629.6 357.9 1630.4 357 1634.2 357C1636.3 357 1637 356.5 1637 355.1C1637 353.5 1635.9 353.2 1628.8 352.6C1624.2 352.3 1618.9 351.8 1617 351.5C1615.1 351.2 1611.8 351.6 1609.7 352.4ZM1620.7 356.6C1622.7 359.8 1623.1 371.3 1621.2 374.7C1619.2 378.3 1616 378.7 1613.3 375.6C1611.4 373.4 1611 371.7 1611 366.4C1611 358.4 1613 354 1616.5 354C1618 354 1619.6 355 1620.7 356.6ZM1629 399.8C1634.2 404 1625.8 408.8 1615.1 407.7C1607.4 406.9 1603.9 403.2 1607.6 399.6C1610 397.2 1626 397.3 1629 399.8Z" fill="black"/>
<path d="M1746.9 351.9C1739 354.4 1734 362.4 1734 372.4C1734.1 385 1741.1 393 1752.1 393C1760 393 1766.5 388.2 1769 380.4C1770.6 375.6 1769.8 365.5 1767.6 360.7C1764.5 354.3 1753.8 349.7 1746.9 351.9ZM1755.6 356.1C1757.2 357.9 1757.6 360.1 1757.8 370.4C1758.2 385.5 1756.9 390 1752.1 390C1747 390 1745.8 386.2 1746.2 371C1746.5 360.1 1746.8 357.9 1748.4 356.1C1750.8 353.4 1753.2 353.4 1755.6 356.1Z" fill="black"/>
<path d="M1926.5 352.3C1924.8 353.1 1922.8 354.5 1922 355.5C1920.6 357.2 1920.5 357.1 1920 354.9C1919.5 352.7 1918.9 352.5 1911.7 352.2C1903.9 351.9 1902.4 352.5 1906 354.8C1907.9 355.9 1908 357.1 1908 372.6C1908 388.3 1907.9 389.2 1906 389.7C1901.1 391 1904.8 392 1914.3 391.9C1923.9 391.9 1924.4 391.8 1922.3 390.3C1920.1 388.8 1920 388.1 1920 375.1C1920 362 1920.1 361.2 1922.3 359.2C1923.6 358 1925.3 357 1926.1 357C1929.5 357 1930 359.2 1930 374.1C1930 388.2 1929.9 388.8 1927.8 390.3C1925.6 391.8 1926.2 391.9 1936 391.9C1945.8 391.9 1946.4 391.8 1944.3 390.3C1942.1 388.8 1942 388.1 1942 374.8C1942 356.6 1940.4 352.5 1932.8 351.4C1931 351.2 1928.1 351.6 1926.5 352.3Z" fill="black"/>
<path d="M1964.1 352.5C1958.5 354.3 1954 358.5 1954 362.1C1954 367.2 1959.3 369.7 1963.5 366.7C1965.3 365.3 1965.3 364.1 1963.5 358.3C1962.9 356.5 1963.3 355.8 1965.3 355.1C1970.7 353 1974 356.2 1974 363.5C1974 366.6 1973.6 367.1 1967.3 370.2C1957.8 374.9 1953 379.7 1953 384.3C1953 392.2 1960.7 394.5 1969.3 389C1972.4 387.1 1974 386.5 1974 387.4C1974 391.8 1982.8 393.5 1987.4 389.9C1990.6 387.4 1990.7 386.3 1987.8 386.4C1985.5 386.5 1985.5 386.2 1985 372.5C1984.7 364.2 1984 357.6 1983.3 356.4C1981.9 353.9 1975.2 351 1971.2 351.1C1969.7 351.1 1966.5 351.7 1964.1 352.5ZM1974 376.4C1974 380.3 1973.5 383.1 1972.8 383.7C1970.2 385.7 1968 385.8 1965.9 384.1C1964.2 382.7 1963.8 381.7 1964.4 379.5C1965.1 376.8 1971.4 370 1973.2 370C1973.6 370 1974 372.9 1974 376.4Z" fill="black"/>
<path d="M2069.4 352.6C2063.6 355.4 2061.3 362.9 2064.5 369C2065.3 370.5 2069.1 374.1 2072.9 376.9C2080.2 382.2 2081.8 384.6 2080 388C2077.7 392.4 2068.7 388.6 2066 382.1C2064 377.2 2063.2 378.5 2063.7 385.7C2064.3 393.1 2064.7 394.1 2066 392C2066.7 390.9 2067.5 390.8 2070.8 391.8C2078.5 394.1 2084.1 392.6 2087.5 387.3C2089.9 383.8 2090 377.2 2087.8 373.7C2086.8 372.3 2082.6 368.6 2078.5 365.5C2070.7 359.8 2069.9 358.3 2072.6 355.5C2075.8 352.4 2082.5 356 2085 362.1C2086.8 366.4 2087.5 364.9 2087.2 357.6C2086.8 351.2 2086.8 351.1 2084.8 352.4C2083.1 353.6 2082.3 353.6 2079.4 352.4C2075.2 350.6 2073.3 350.7 2069.4 352.6Z" fill="black"/>
<path d="M2127.3 352.5C2123.2 354.3 2120.9 357.9 2120.8 362.8C2120.7 368.2 2121.7 369.6 2130.2 376.6C2137.6 382.7 2139.3 385.7 2137 388.6C2136.3 389.3 2134.7 390 2133.4 390C2130.5 390 2124.2 384.6 2123.4 381.4C2121.7 374.8 2120.1 382.4 2121.6 389.9C2122.1 392.4 2122.5 392.8 2123.7 391.9C2124.7 391 2126 391 2128.9 391.9C2134 393.4 2136.6 393.3 2140.4 391.5C2144.5 389.5 2147 385.2 2147 380.3C2146.9 374.9 2145.3 372.6 2136.9 366.1C2128.9 360 2127.3 357 2131 355C2134.4 353.2 2138.6 355.5 2141.8 360.9L2144.5 365.5L2144.8 359.6C2145.2 352.2 2144.6 350.3 2142.5 352C2141.3 353 2140.1 353 2137.1 352.1C2132.3 350.7 2131.3 350.7 2127.3 352.5Z" fill="black"/>
<path d="M2236.5 352C2232.6 353.2 2226.6 359.5 2225.1 363.9C2223.2 369.7 2223.7 379 2226.3 384C2229.3 389.9 2232.8 392.2 2239.2 392.7C2245.4 393.2 2249.1 391.3 2253.5 385.6C2256.8 381.3 2256.1 379.5 2252.6 383.3C2247.4 388.9 2241 387.5 2237.3 380C2236 377.6 2235 374.5 2235 373.3C2235 371 2235.2 371 2245.5 371H2256V367.7C2256 363.6 2252.3 356.2 2249 353.8C2245.9 351.5 2240.5 350.8 2236.5 352ZM2244.7 357C2245.4 358.4 2246 361.4 2246 363.7V368H2240.5H2235V364.6C2235 360.6 2236.6 355.9 2238.3 354.8C2240.4 353.4 2243.4 354.4 2244.7 357Z" fill="black"/>
<path d="M2286.4 352.4C2284.7 353.2 2282.2 355.3 2280.9 357.1L2278.5 360.5L2278 356.5L2277.5 352.5L2269.8 352.4C2261.7 352.2 2260.6 352.7 2264 354.8C2265.9 355.9 2266 357.1 2266 372.6C2266 388.3 2265.9 389.2 2264 389.7C2259.1 391 2262.8 392 2272.5 392C2278.3 392 2283 391.8 2283 391.5C2283 391.2 2281.8 390.5 2280.4 390L2277.8 389L2278.1 376.5C2278.5 364.6 2278.6 363.9 2281.1 361.4L2283.8 358.8L2286.9 361.1C2289.5 363 2290.3 363.2 2292.5 362.2C2297.1 360.1 2295.3 350.8 2290.3 351C2289.9 351.1 2288.1 351.7 2286.4 352.4Z" fill="black"/>
<path d="M2380.6 352C2373.2 354.2 2368.1 362.9 2368 373C2368 381.3 2371.9 388.8 2377.6 391.5C2384.7 394.9 2395.5 391.5 2399.1 384.9C2400.6 381.9 2399.7 381.6 2396.6 384.1C2393.6 386.5 2387.8 386.9 2385.4 384.9C2382 382.1 2379.7 375.6 2379.2 367.4C2378.8 360 2379 359.2 2381.2 356.5C2384.1 353.1 2386.7 353.6 2387.5 357.7C2388.6 362.9 2390.4 365.5 2393.3 365.8C2396.8 366.2 2399 364.5 2399 361.3C2399 357.4 2397.1 355 2392.7 352.9C2388.2 350.9 2385.2 350.7 2380.6 352Z" fill="black"/>
<path d="M2417.5 352.8C2409.8 356.4 2406 363.3 2406 373.6C2406 380.4 2410.2 388.7 2415 391.2C2422.1 394.9 2431.1 392.7 2435.6 386.1C2438.8 381.3 2438.7 378.5 2435.5 382.7C2429.9 389.7 2422.1 387.3 2418.3 377.5C2415.8 371.1 2415.9 371 2427.3 371C2433 371 2437.9 370.8 2438.2 370.5C2439.2 369.5 2437 360.5 2435.2 358.1C2430.5 351.7 2424 349.8 2417.5 352.8ZM2426.4 356.2C2427.3 357.5 2428 360.5 2428 363.2V368H2422.4H2416.7L2417.2 363.5C2418.2 355.2 2423 351.3 2426.4 356.2Z" fill="black"/>
<path d="M2452 352.1C2448.1 353.7 2446.1 356 2445 360.1C2443.6 365.2 2445.5 369.7 2451 374.1C2460.7 381.9 2462 383.3 2462 385.4C2462 388.3 2460.2 390 2457.2 390C2454.8 390 2448.9 384.8 2446.3 380.5C2445.3 378.8 2445.1 379.2 2445.1 383.5C2445 390.6 2445.9 393.4 2447.6 391.9C2448.7 391 2450.1 391 2453.5 392C2462.9 394.6 2469.9 390.2 2470.8 381C2471.3 376 2471.2 375.9 2466.3 371.2C2463.6 368.6 2459.5 365 2457.2 363.2C2452.6 359.6 2451.9 356.7 2455.1 355C2458.4 353.2 2462.6 355.5 2465.8 360.9L2468.5 365.5L2468.8 359.6C2469 356.4 2468.8 353 2468.5 352.2C2468 350.8 2467.8 350.8 2466.3 352.2C2465 353.6 2464.4 353.6 2461.4 352.4C2457.6 350.8 2455.5 350.7 2452 352.1Z" fill="black"/>
<path d="M2595.7 352.4C2590.7 354.2 2588.5 356.3 2585.8 361.8C2580.4 373.1 2585.1 388.1 2595.3 391.9C2603.1 394.9 2612.9 391.4 2616.8 384.3C2623.7 371.7 2618.4 355.4 2606.3 352.1C2601.5 350.7 2600.4 350.8 2595.7 352.4ZM2605.7 356.7C2607.2 359 2607.5 361.7 2607.5 372.6C2607.5 384.2 2607.3 386 2605.6 387.9C2603.3 390.4 2599.8 390.6 2597.9 388.4C2595.9 386 2595.1 377.2 2596 366.5C2596.5 358.7 2597.1 356.4 2598.5 355.3C2601.4 353.3 2603.8 353.7 2605.7 356.7Z" fill="black"/>
<path d="M2650.1 352C2648.8 352.6 2646.5 353.9 2644.9 355.1L2642 357.1V354.6C2642 352 2641.9 352 2634.6 352C2630.5 352 2626.8 352.4 2626.5 353C2626.2 353.5 2626.6 354 2627.5 354C2630.2 354 2631 358.6 2631 373.1C2631 386.9 2631 387.1 2628.4 389.5L2625.7 392H2635.9C2641.4 392 2646 391.8 2646 391.5C2646 391.2 2645.1 390.1 2644 389C2642.2 387.2 2642 385.7 2642 374.5C2642 362.5 2642.1 361.8 2644.5 359.5C2647.4 356.5 2650.5 356.3 2652 358.9C2652.5 360 2653 366.7 2653 373.9C2653 385.7 2652.8 387.2 2651 389C2649.9 390.1 2649 391.2 2649 391.5C2649 391.8 2653.6 392 2659.1 392H2669.3L2666.6 389.5C2664 387.1 2664 387 2664 372.6C2664 358.1 2664 358 2661.3 355C2658.2 351.7 2653.8 350.5 2650.1 352Z" fill="black"/>
<path d="M2681.4 352.6C2675.6 355.4 2673.3 362.9 2676.5 368.9C2677.3 370.5 2681.1 374.1 2684.9 376.9C2692.3 382.4 2693.8 384.7 2692 388C2689.7 392.3 2682.1 389.3 2678.5 382.6C2677.4 380.6 2676.3 379 2676 379C2675.7 379 2675.6 382.1 2675.8 386C2676.2 393 2676.6 394 2678.7 391.9C2679.6 391 2680.7 391 2683.1 391.9C2691.3 394.8 2698.4 391.6 2700.8 384C2702.9 377.2 2701 373.6 2691.7 366.5C2687.5 363.4 2683.9 360.2 2683.6 359.3C2683.2 358.4 2683.7 356.9 2684.7 355.8C2687.8 352.4 2694.4 355.8 2697 362.1C2698.3 365.1 2700.1 365.2 2699.5 362.2C2699.3 361.3 2699.1 358.4 2699.1 355.7C2699 351.3 2698.9 351.1 2697.1 352.2C2695.6 353.1 2694.3 353.1 2691.2 352.2C2686.2 350.7 2685.2 350.7 2681.4 352.6Z" fill="black"/>
<path d="M2820.1 352.9C2814.1 355 2811.1 358.1 2811 362.2C2811 367 2815.5 369.4 2820.1 367C2822.4 365.7 2822.6 362.8 2820.4 359.5C2818.9 357.3 2819 357.1 2821.4 355.5C2823.3 354.2 2824.6 354 2826.7 354.7C2829.6 355.7 2830.7 358.1 2830.9 363.7C2831 366.7 2830.5 367.1 2824.3 370.2C2814.9 374.8 2810 379.6 2810 384.3C2810 392 2817.3 394.3 2825.9 389.3C2828.9 387.6 2830.5 387.1 2830.8 387.9C2832.3 392.3 2839.9 393.5 2844.4 389.9C2847.6 387.4 2847.7 386.3 2844.8 386.4C2842.5 386.5 2842.5 386.2 2842 372.3C2841.5 359 2841.3 358 2839.1 355.6C2836.7 353 2831.4 351 2827.5 351C2826.4 351.1 2823.1 351.9 2820.1 352.9ZM2831 375.8C2831 384 2827.4 387.7 2822.9 384.1C2821.2 382.7 2820.8 381.7 2821.4 379.5C2822.1 376.7 2828.2 370 2830.1 370C2830.6 370 2831 372.6 2831 375.8Z" fill="black"/>
<path d="M2876.5 351.7C2875.4 352 2873 353.3 2871.3 354.7L2868 357.1V354.6C2868 352 2867.9 352 2860 352C2852.5 352 2849.5 353.1 2854 354.3C2855.9 354.8 2856 355.7 2856 371.8C2856 388.3 2855.9 388.8 2853.8 390.3C2851.6 391.8 2852.1 391.9 2861.8 391.9C2868 392 2872 391.6 2872 391C2872 390.4 2871.4 390 2870.6 390C2868.4 390 2868 387.6 2868 374.1C2868 361.9 2868.1 361.2 2870.4 359.1C2871.9 357.7 2873.7 357 2875.2 357.2C2877.5 357.5 2877.5 357.6 2877.8 373.3C2878 386.7 2877.8 389.1 2876.5 389.6C2872.7 391.1 2875.8 392 2884.5 392C2890.2 392 2894 391.6 2894 391C2894 390.4 2893.3 390 2892.5 390C2890.4 390 2890.1 387.5 2889.8 371.3C2889.5 357.6 2889.4 356.9 2887 354.5C2884.4 352 2880 350.8 2876.5 351.7Z" fill="black"/>
<path d="M2913.5 352.1C2899.7 356.1 2896.3 381.6 2908.3 390.2C2913.2 393.7 2922.4 393.5 2927.3 389.7C2931.1 386.8 2933.6 383.3 2932.6 382.2C2932.3 381.9 2930.9 382.7 2929.6 383.9C2924.8 388.4 2917.8 386.3 2914.4 379.3C2912.1 374.6 2911.3 362.1 2913 358C2915.3 352.5 2921 353.5 2921 359.5C2921 362.9 2923.8 366 2926.9 366C2934.6 366 2933.2 355.9 2925 352.6C2920.6 350.8 2918.1 350.7 2913.5 352.1Z" fill="black"/>
<path d="M3015.5 352.4C3009.9 354 3005 358.6 3005 362.4C3005 367.8 3012.6 370 3015.6 365.5C3017.1 363.2 3017.1 362.8 3015.5 360.4C3014.6 359 3014.1 357.3 3014.3 356.5C3015.2 354.4 3020 353.7 3022.6 355.5C3024.6 356.8 3025 357.9 3025 361.9V366.8L3016.9 371.2C3008.3 375.7 3005.4 378.6 3004.4 383.5C3004 385.7 3004.4 387.3 3006 389.3C3009 393.1 3015.2 393.1 3020.7 389.1L3024.6 386.3L3026.3 389.1C3027.7 391.6 3028.5 392 3032.3 392C3035.6 392 3037.2 391.4 3038.8 389.7C3041.5 386.9 3041.6 386 3039.1 386.7C3037.4 387.1 3037.3 386.2 3036.8 373.3C3036.5 365.6 3035.8 358.5 3035.2 357.3C3032.4 352.1 3024 350 3015.5 352.4ZM3023.8 384.2C3023.1 384.6 3021.2 384.9 3019.5 384.8C3016.8 384.5 3016.5 384.1 3016.2 380.9C3015.9 377.8 3016.4 376.8 3020.2 373.4L3024.5 369.5L3024.8 376.4C3025 381.3 3024.7 383.6 3023.8 384.2Z" fill="black"/>
<path d="M3069.5 352.4C3067.8 353.1 3065.9 354.4 3065.1 355.3C3063.2 357.7 3062 357.4 3062 354.5C3062 352.1 3061.8 352 3054.5 352C3050.4 352 3047 352.2 3047 352.5C3047 352.8 3047.9 353.9 3049 355C3050.8 356.8 3051 358.3 3051 372C3051 385.7 3050.8 387.2 3049 389C3047.9 390.1 3047 391.2 3047 391.5C3047 391.8 3051.3 392 3056.5 392C3061.7 392 3066 391.8 3066 391.5C3066 391.2 3065.1 390.1 3064 389C3062.2 387.2 3062 385.7 3062 374.5C3062 362.5 3062.1 361.8 3064.5 359.5C3067.4 356.5 3070.5 356.3 3072 358.9C3072.5 360 3073 367 3073 374.4C3073 386.9 3072.8 388.1 3071 389.2C3069.9 389.9 3069 390.8 3069 391.2C3069 391.7 3073.6 392 3079.3 392H3089.5L3087 390.1C3084.6 388.2 3084.5 387.7 3084.2 373.8C3083.9 357.6 3082.8 353.8 3077.7 352.1C3073.9 350.7 3073.2 350.8 3069.5 352.4Z" fill="black"/>
<path d="M3244.5 352.2C3240.1 353.7 3235.3 358.7 3233.4 363.7C3231 370 3231.9 380.7 3235.3 385.8C3239.7 392.5 3248.3 394.8 3255.5 391.4C3258.9 389.8 3264.8 382.5 3263.6 381.3C3263.3 380.9 3262.3 381.5 3261.5 382.7C3260.7 383.8 3258.7 385.3 3257 386C3251.1 388.4 3245.1 383.4 3243.5 374.7L3242.8 371H3253.5H3264.3L3263.8 366C3263.2 360.1 3259.3 354.5 3254.4 352.4C3250.6 350.8 3248.7 350.7 3244.5 352.2ZM3252.4 356.2C3253.3 357.5 3254 360.5 3254 363.2V368H3248.4H3242.7L3243.2 363C3244 355 3249 351.3 3252.4 356.2Z" fill="black"/>
<path d="M3292.5 352.4C3290.8 353.1 3288.8 354.5 3288 355.5C3286.6 357.2 3286.5 357.1 3286 354.9C3285.5 352.7 3284.9 352.5 3277.7 352.2C3269.8 351.9 3268.4 352.5 3272 354.8C3273.9 355.9 3274 357.1 3274 371.4C3274 387.6 3273.7 390 3271.4 390C3270.6 390 3270 390.4 3270 391C3270 391.6 3274 392 3280.3 391.9C3289.9 391.9 3290.4 391.8 3288.3 390.3C3286.1 388.8 3286 388.1 3286 375.1C3286 362 3286.1 361.2 3288.3 359.2C3289.6 358 3291.3 357 3292.1 357C3295.5 357 3296 359.2 3296 373.7C3296 387 3295.9 388 3293.8 390L3291.6 392H3301.8C3311.2 392 3314.9 391 3310 389.7C3308.1 389.2 3308 388.3 3308 375.8C3308 359.7 3307 355.6 3302.7 353C3299 350.7 3296.7 350.6 3292.5 352.4Z" fill="black"/>
<path d="M3330.7 352.4C3325.9 354.1 3323.3 356.5 3320.9 361.1C3318.1 366.6 3317.5 373.8 3319.4 380.1C3322.5 390.8 3331.8 395.6 3341.5 391.6C3344.6 390.3 3351.6 382.3 3350.5 381.2C3350.3 380.9 3348.4 382.2 3346.4 384C3343.4 386.6 3342.2 387.1 3339.7 386.6C3335.3 385.7 3332.2 382.4 3330.5 376.6C3329.7 373.9 3329 371.5 3329 371.3C3329 371.1 3334 371 3340.1 371H3351.3L3350.6 366.8C3349.6 360.4 3346.2 355.3 3341.5 353C3336.7 350.7 3335.8 350.6 3330.7 352.4ZM3338.4 355.9C3339.3 356.9 3340.3 360 3340.7 362.9L3341.3 368H3335H3328.7L3329.4 363.3C3330.5 355 3334.6 351.6 3338.4 355.9Z" fill="black"/>
<path d="M3381.5 352.1C3380.4 352.7 3377.8 355 3375.8 357.3L3372 361.5V356.7V352H3364.6C3360.5 352 3356.8 352.4 3356.5 353C3356.2 353.5 3356.6 354 3357.4 354C3360.3 354 3361 357.8 3361 372.5C3361 387 3361 387.1 3358.4 389.5L3355.7 392H3366.4C3372.8 392 3377 391.6 3377 391C3377 390.4 3376.3 390 3375.5 390C3372.6 390 3371.7 386 3372.3 376C3372.8 366.4 3374.5 360.7 3377.2 359.7C3377.9 359.5 3380 360.1 3381.8 361.2C3384.8 363.1 3385.2 363.1 3387.5 361.6C3390.8 359.5 3390.9 354.7 3387.8 352.6C3385.2 350.7 3384.2 350.7 3381.5 352.1Z" fill="black"/>
<path d="M3408.5 351.9C3403.3 353.2 3399.1 355.9 3397.5 359C3395.5 362.8 3395.6 363.6 3398 366C3400.6 368.6 3404.2 368.6 3406.5 365.9C3408.3 364 3408.3 363.8 3406.6 360.5C3405.6 358.7 3405 356.7 3405.4 356.2C3406.6 354.3 3411.2 353.9 3413.6 355.5C3415.6 356.8 3416 357.9 3416 362V366.9L3409.1 370.5C3398.2 376.2 3395 380.2 3396 387C3396.7 392.5 3405.1 393.8 3411.6 389.4L3415.4 386.8L3417.3 389.4C3420.4 393.7 3429.4 392.8 3432 387.9C3433 386.1 3432.9 386 3430.6 386.6L3428 387.2V373.9C3428 359.6 3427.3 357 3423 353.9C3420.1 351.7 3412.9 350.7 3408.5 351.9ZM3416 376.8C3416 383.2 3415.8 383.8 3413.4 384.8C3409.8 386.5 3407 384.8 3407 380.8C3407 378.6 3408.1 376.7 3410.9 373.9C3413 371.7 3415 370 3415.4 370C3415.7 370 3416 373.1 3416 376.8Z" fill="black"/>
<path d="M3559.4 351.6C3558.2 351.9 3555.4 353.7 3553.2 355.6C3546 361.7 3544 373.1 3548.4 382.6C3552.2 390.8 3559.3 394.3 3568.5 392.6C3573.2 391.7 3579.5 385.9 3581.1 381.2C3584.4 371.3 3581.2 359.1 3574.1 354.4C3570.5 352.1 3563.5 350.7 3559.4 351.6ZM3567.6 355.4C3569.3 356.7 3569.5 358.3 3569.8 371C3570.1 382.6 3569.9 385.5 3568.6 387.6C3566.6 390.6 3563 390.7 3560.4 387.9C3558.7 386 3558.5 384.2 3558.5 372.6C3558.5 361.7 3558.8 358.9 3560.3 356.7C3562.2 353.7 3564.6 353.3 3567.6 355.4Z" fill="black"/>
<path d="M3613.5 351.7C3612.4 352 3610.1 353.3 3608.3 354.6L3605.1 357L3604.8 354.7C3604.5 352.7 3603.9 352.5 3596.8 352.2C3589.3 351.9 3586.4 353 3591 354.5C3592.9 355.1 3593 356 3593 372.2C3593 388.3 3592.9 389.2 3591 389.7C3586.1 391 3589.8 392 3599.3 391.9C3608.9 391.9 3609.4 391.8 3607.3 390.3C3605.1 388.8 3605 388.1 3605 375.1C3605 361.8 3605.1 361.3 3607.4 359.1C3609.2 357.4 3610.6 356.9 3612.4 357.4L3615 358V373.4C3615 388.2 3614.9 388.8 3612.8 390.3C3610.6 391.8 3611.1 391.9 3620.8 391.9C3630.2 392 3633.9 391 3629 389.7C3627.1 389.2 3627 388.3 3627 375.1C3627 360.7 3626.1 356 3622.8 353.3C3621 351.8 3616.3 351 3613.5 351.7Z" fill="black"/>
<path d="M3690.3 352.7C3688.5 353.7 3685.9 356 3684.5 357.9L3682 361.4V356.7V352H3674C3666.5 352 3663.5 353.1 3668 354.3C3669.9 354.8 3670 355.7 3670 372C3670 388.3 3669.9 389.2 3668 389.7C3663.1 391 3666.8 392 3676.5 392C3682.3 392 3687 391.8 3687 391.5C3687 391.2 3685.9 390.5 3684.5 390C3682.1 389.1 3682 388.8 3682 379.3C3682 368.4 3683.1 363.1 3685.9 360.6C3687.6 359 3688 359 3691.2 361C3693.3 362.2 3695.5 362.8 3696.4 362.4C3700.3 360.9 3700.4 353.1 3696.5 351.6C3694.2 350.7 3693.8 350.8 3690.3 352.7Z" fill="black"/>
<path d="M3716.5 352.5C3710.9 354 3706 358.6 3706 362.4C3706 365.6 3709.2 368.2 3712.6 367.8C3716.6 367.3 3717.7 364.9 3716.1 360.4C3714.9 357 3714.9 356.5 3716.6 355.3C3718.8 353.7 3723 354.4 3724.8 356.7C3725.4 357.6 3726 360.3 3726 362.6V366.8L3717.8 371.2C3705.8 377.5 3702.4 383.4 3707.2 389.5C3709.1 391.9 3709.8 392.2 3714.1 391.8C3717.3 391.5 3720.1 390.4 3722.5 388.6C3724.9 386.8 3726 386.3 3726 387.3C3726 392.1 3736 393.8 3739.8 389.7C3742.4 386.9 3742.6 385.8 3740.4 386.7C3737.6 387.7 3737 384.9 3737 371.2V357.8L3734 355C3729.6 350.9 3725 350.2 3716.5 352.5ZM3726 376.4C3726 382.8 3725.4 384 3721.7 385.3C3719.1 386.2 3715.7 382.5 3716.6 379.7C3717.3 377.4 3723.8 370 3725.2 370C3725.6 370 3726 372.9 3726 376.4Z" fill="black"/>
<path d="M3760.6 352C3748 355.8 3743.6 377.4 3753.3 387.8C3760 395 3770.9 394.7 3777.3 387.1C3780.8 382.8 3780.7 381.3 3777.1 383.9C3773.7 386.4 3768.3 386.6 3765.3 384.5C3759.2 380.3 3756.9 360.7 3761.8 355.8C3764.7 352.8 3767.2 354.3 3768.2 359.5C3769.3 364.5 3770.6 366 3773.9 366C3782.2 366 3779.9 354.5 3771.2 352C3766.9 350.8 3764.6 350.8 3760.6 352Z" fill="black"/>
<path d="M3827.9 352C3823.1 353.4 3820.1 356.2 3817.4 361.6C3812.5 371.6 3815.4 385.3 3823.5 390.6C3826.5 392.6 3832.7 393.5 3837.4 392.6C3847.8 390.6 3853.7 376.9 3849.8 363.7C3847.1 354.7 3836.9 349.2 3827.9 352ZM3835.6 354.8C3838.2 356.5 3839 360.4 3839 371.5C3839 385.8 3837.6 390 3833.1 390C3828 390 3826.8 386.2 3827.2 371C3827.5 360.1 3827.8 357.9 3829.4 356.1C3831.4 354 3833.6 353.5 3835.6 354.8Z" fill="black"/>
<path d="M3882.5 352.4C3880.9 353.1 3878.3 355.5 3876.8 357.6L3874 361.5V356.7V351.9L3866 352.2C3861.6 352.3 3858 352.7 3858 353C3858 353.3 3858.9 354.1 3860 354.8C3861.9 355.9 3862 357.1 3862 372.6C3862 388.3 3861.9 389.2 3860 389.7C3855.1 391 3858.8 392 3868.5 392C3874.3 392 3879 391.8 3879 391.5C3879 391.2 3877.9 390.5 3876.5 390C3874.1 389.1 3874 388.8 3874 378.5C3874 367.6 3875.2 362.8 3878.4 360.1C3879.8 358.9 3880.3 358.9 3881.8 360.2C3886.5 364.4 3891 362.6 3891 356.5C3891 354.1 3890.4 352.7 3889.1 352C3886.7 350.7 3886.2 350.8 3882.5 352.4Z" fill="black"/>
<path d="M1065.7 352.6C1065.4 352.9 1066.2 354.2 1067.6 355.4C1069.1 356.6 1073.2 364.7 1077.9 375.6L1085.7 393.6L1083.8 398.6C1082.7 401.3 1081.4 404 1080.8 404.7C1079.1 406.8 1077 406.2 1077 403.7C1077 402.4 1076.1 400.5 1075 399.5C1070.6 395.5 1065 402.2 1068.3 407.4C1071.6 412.4 1079.3 411.4 1083 405.5C1084.1 403.7 1088.8 392.2 1093.5 379.9C1099.2 364.9 1102.8 356.8 1104.5 355.4C1105.8 354.2 1106.6 352.9 1106.3 352.6C1105.3 351.6 1094 351.9 1094 352.9C1094 353.4 1094.9 354 1096 354.3C1097.4 354.7 1098 355.7 1098 357.8C1098 361.7 1091.9 378.4 1090.9 377.3C1089.3 375.6 1082.2 356.6 1082.7 355.3C1083 354.6 1083.8 354 1084.6 354C1085.4 354 1086 353.5 1086 353C1086 351.9 1066.8 351.6 1065.7 352.6Z" fill="black"/>
<path d="M1316 352.6C1316 353 1316.8 353.9 1317.8 354.6C1319.2 355.6 1319.6 358.1 1320 371.2C1320.5 387.4 1321.2 389.9 1325.7 391.9C1330.4 394.1 1335 393 1339.8 388.7L1342 386.7V389.3V392H1350.3H1358.5L1356 390C1353.5 388.1 1353.5 388 1353.2 370.1L1352.9 352H1345.4C1341.3 352 1338 352.2 1338 352.5C1338 352.8 1338.9 353.9 1340 355C1341.8 356.8 1342 358.3 1342 369.8C1342 381.9 1341.9 382.8 1339.7 384.8C1336.8 387.5 1333.4 387.6 1332 385.1C1331.4 384 1331 376.4 1331 367.6V352H1323.5C1319.4 352 1316 352.3 1316 352.6Z" fill="black"/>
<path d="M1400 352.7C1400 353 1400.9 353.9 1402 354.8C1403.1 355.8 1407.5 364.6 1411.8 374.4C1416.1 384.3 1420.1 392.5 1420.6 392.7C1421.2 392.9 1425.2 384.7 1429.5 374.4C1433.9 364.2 1438.2 355.3 1439.2 354.6C1442.1 352.9 1441.4 352.5 1435 352.2C1429.2 352 1426.8 353.2 1431 354.3C1432.2 354.6 1433 355.7 1433 356.9C1433 359.9 1425.9 377.3 1425 376.3C1423.7 374.8 1417 358.3 1417 356.5C1417 355.6 1417.9 354.6 1419 354.3C1420.1 354 1420.7 353.4 1420.4 352.9C1419.9 352 1400 351.8 1400 352.7Z" fill="black"/>
<path d="M1482 352.9C1482 353.3 1482.9 354.5 1483.9 355.4C1485.7 357.1 1488.7 363.4 1498 385.1L1501.7 393.7L1499.9 398.4C1499 401 1497.6 403.8 1497 404.6C1495.1 406.8 1493 406.3 1493 403.7C1493 402.4 1492.1 400.5 1491 399.5C1486.6 395.5 1481 402.2 1484.4 407.4C1487.8 412.7 1496.3 411.2 1499.6 404.7C1500.6 403 1505.1 391.6 1509.7 379.5C1515.4 364.6 1518.9 356.8 1520.5 355.3C1523.6 352.6 1523 352.2 1515.8 352.2C1509.6 352.3 1508.6 352.9 1512.3 354.5C1513.8 355.2 1514.4 356.3 1514.3 358C1514.1 361.8 1507.9 378.3 1507 377.3C1505.6 375.6 1499 359.1 1499 357C1499 355.9 1499.7 354.7 1500.5 354.4C1504.4 352.9 1501.1 352 1492 352.1C1486.5 352.1 1482 352.5 1482 352.9Z" fill="black"/>
<path d="M1526 352.9C1526 353.4 1526.9 354.2 1528 354.5C1529.9 355.1 1530 356 1530 372.2C1530 388.3 1529.9 389.2 1528 389.7C1523.1 391 1526.9 392 1536.6 392C1543.3 392 1546.9 391.6 1546.5 391C1546.2 390.4 1545.3 390 1544.5 390C1542.3 390 1542 387.5 1542 369.4V352H1534C1529.6 352 1526 352.4 1526 352.9Z" fill="black"/>
<path d="M1775.7 352.7C1775.3 353 1776 353.8 1777.3 354.4C1779.4 355.5 1779.5 356.1 1779.8 372.3L1780 389L1777.3 390.3C1774.6 391.4 1774.8 391.5 1780.3 391.8C1783.4 392 1788.6 392 1791.8 391.8C1797.2 391.5 1797.4 391.4 1794.8 390.3L1792 389V370.5V352H1784.2C1779.9 352 1776 352.3 1775.7 352.7Z" fill="black"/>
<path d="M2017 352.8C2017 353 2018 354.2 2019.3 355.4C2020.5 356.5 2025 365.5 2029.3 375.4L2037.1 393.2L2035.5 397.9C2034.6 400.4 2033.3 403.3 2032.5 404.4C2030.6 406.9 2028 405.8 2028 402.5C2028 398.8 2023.8 397 2021 399.5C2018.1 402.1 2018.4 406.4 2021.7 409C2026.2 412.5 2032.3 410.3 2035.5 404C2036.2 402.6 2040.7 391.3 2045.4 379C2050.4 365.8 2054.8 355.8 2056 354.8C2057.1 353.9 2058 352.9 2058 352.6C2058 351.6 2046.2 351.9 2045.6 352.9C2045.3 353.4 2046.1 354.1 2047.5 354.4C2049.3 354.9 2050 355.7 2050 357.5C2050 359.9 2044.5 375.9 2043.1 377.2C2042.3 378.1 2034 359.1 2034 356.4C2034 355.5 2034.9 354.6 2036 354.3C2037.1 354 2037.7 353.4 2037.4 352.8C2036.8 351.9 2017 351.8 2017 352.8Z" fill="black"/>
<path d="M2095 353C2095 353.4 2095.8 354 2096.8 354.3C2099.3 354.9 2100 358.9 2100 373.1C2100 385.4 2099.1 390 2096.5 390C2095.7 390 2095 390.4 2095 391C2095 391.6 2099.2 392 2105.6 392H2116.3L2113.6 389.5L2111 387.1V369.5V352L2103 352.1C2098.6 352.2 2095 352.6 2095 353Z" fill="black"/>
<path d="M2298 352.5C2298 352.9 2298.9 353.9 2300 354.8C2301.1 355.8 2305.5 364.6 2309.7 374.4C2314 384.3 2318 392.5 2318.5 392.7C2319.1 392.9 2323.1 384.7 2327.4 374.4C2331.9 363.8 2336 355.4 2337.1 354.7C2340.3 352.7 2339.2 352 2333 352C2326.7 352 2325.7 352.7 2329 354.8C2330.1 355.5 2331 356.5 2331 357C2331 359.4 2323.6 377 2323 376.3C2321.5 374.7 2315 358.9 2315 356.9C2315 355.8 2315.7 354.7 2316.5 354.4C2320.1 353 2317.3 352.2 2308 352.1C2302.5 352 2298 352.2 2298 352.5Z" fill="black"/>
<path d="M2342 353C2342 353.5 2342.7 354 2343.5 354C2346.3 354 2347 357.9 2347 372.5C2347 387 2347 387.1 2344.4 389.5L2341.7 392H2352.4C2358.8 392 2363 391.6 2363 391C2363 390.4 2362.3 390 2361.5 390C2358.7 390 2358 386.1 2358 369.1V352H2350C2345.3 352 2342 352.4 2342 353Z" fill="black"/>
<path d="M2708 352.7C2708 353.2 2708.9 354.1 2709.9 354.7C2711.6 355.8 2711.9 357.4 2712.2 371.5L2712.5 387.2L2715.9 390.2C2718.9 392.9 2719.8 393.2 2723.7 392.7C2726.8 392.4 2729.1 391.3 2731.1 389.4L2734 386.6V389.3V392H2742C2749.5 392 2752.5 390.9 2748 389.7C2746.2 389.2 2746 388.2 2745.8 370.8L2745.5 352.5L2737.8 352.4C2733.5 352.4 2730 352.6 2730 352.9C2730 353.3 2730.9 354.1 2732 354.8C2733.8 355.9 2734 357.1 2734 369.3C2734 382.1 2733.9 382.7 2731.6 384.9C2730.1 386.3 2728.3 387 2726.8 386.8C2724.5 386.5 2724.5 386.4 2724 369.5L2723.5 352.5L2715.8 352.2C2711.5 352 2708 352.3 2708 352.7Z" fill="black"/>
<path d="M2936.7 352.6C2936.4 352.9 2937.2 354.2 2938.5 355.4C2940.9 357.5 2956 390.8 2956 393.9C2956 396.7 2951.2 406 2949.8 406C2949 406 2948 404.6 2947.5 402.8C2946.1 398.4 2943.8 397.2 2940.6 399.3C2933.4 404.1 2942 413.6 2949.8 409.6C2953.3 407.8 2955 404.4 2964.1 380.5C2973.2 356.8 2974 355.1 2976.2 354.5C2979.6 353.3 2977 352.2 2971 352.1C2965.1 352.1 2963 353.2 2967 354.3C2968.5 354.7 2969 355.6 2969 358.2C2968.9 362 2962.6 378.8 2961.8 377.4C2961.5 376.9 2959.3 372.1 2957 366.6C2952.9 356.9 2952.5 354 2955.5 354C2956.3 354 2957 353.5 2957 353C2957 351.9 2937.8 351.6 2936.7 352.6Z" fill="black"/>
<path d="M1238 372V376H1250H1262V372V368H1250H1238V372Z" fill="black"/>
<path d="M1644.6 381.1C1639.5 385.1 1642.3 392 1649.1 392C1651.2 392 1653 392.5 1653 393C1653 395.7 1649.9 401 1647.1 403.1C1643.6 405.7 1643.1 407.1 1645.9 406.3C1649.5 405.4 1654.9 400 1656.5 395.5C1658.6 390.1 1657.9 384.8 1654.5 381.4C1651.5 378.5 1648.1 378.3 1644.6 381.1Z" fill="black"/>
<path d="M2479.9 380.8C2477.4 382.9 2476.9 387.9 2479 390.4C2479.7 391.4 2481.8 392 2484.1 392C2487.4 392 2488 392.3 2488 394.1C2488 397.1 2484.6 402.4 2481.5 404C2478.1 405.8 2478.3 407.2 2481.8 405.9C2488.3 403.4 2493 396.4 2493 389C2493 385.7 2492.4 384.2 2490.1 381.9C2486.7 378.6 2483.2 378.2 2479.9 380.8Z" fill="black"/>
<path d="M3891.6 381.1C3886.6 385 3889.4 393 3895.9 393C3899.2 393 3903 389.1 3903 385.8C3903 383.4 3898.6 379 3896.2 379C3895.1 379 3893.1 379.9 3891.6 381.1Z" fill="black"/>
</svg>
