<svg width="40" height="40" viewBox="0 0 40 40" fill="none" xmlns="http://www.w3.org/2000/svg">
<path d="M31.0385 29.1124L35.4142 23.6427C36.4704 22.3224 36.0356 20.0669 34.612 19.4949L32 18.4455V7.5C32 6.1193 31.1046 5 30 5H26V1.875C26 0.839453 25.3284 0 24.5 0H15.5C14.6716 0 14 0.839453 14 1.875V5H10C8.89544 5 8 6.1193 8 7.5V18.4455L5.388 19.4949C3.96594 20.0663 3.52838 22.3209 4.58575 23.6427L8.9615 29.1124C7.86425 32.5224 5.34919 35 1.5 35C0.671562 35 0 35.8395 0 36.875V38.125C0 39.1605 0.671562 40 1.5 40C5.31394 40 8.21869 38.3898 10.4536 35.3597C11.3548 38.0806 13.5013 40 16 40H24C26.4987 40 28.6452 38.0806 29.5464 35.3597C31.7809 38.3894 34.6855 40 38.5 40C39.3284 40 40 39.1605 40 38.125V36.875C40 35.8395 39.3284 35 38.5 35C34.6989 35 32.1536 32.578 31.0385 29.1124ZM12 10H28V16.8384L20.612 13.87C20.214 13.7101 19.786 13.7101 19.388 13.87L12 16.8384V10Z" fill="black"/>
</svg>
